<svg xmlns="http://www.w3.org/2000/svg" width="32" height="32" viewBox="740.85 243.98 460.02 460.02">
  <rect fill="#040507" x="740.07" y="245.13" width="461.79" height="459.12" rx="229.56"/>
  <g transform="matrix(0.70093 0 0 0.70093 290.36 141.76)">
    <path d="m0 0c3.3233 2.1504 5.8248 4.4138 7.9375 7.8125 0 0.66 0 1.32 0 2 65.01 0 130.02 0 197 0 0.66-1.32 1.32-2.64 2-4 1.8398-1.8867 1.8398-1.8867 3.9375-3.6875 1.0345-0.90299 1.0345-0.90299 2.0898-1.8242 5.091-3.8409 11.919-2.9904 17.973-2.4883 6.198 1.6595 10.581 5.6583 14 11 2.7585 7.0215 2.8082 13.247-0.10547 20.152-3.1621 6.5313-8.2627 9.3809-14.895 11.848-1.1266-0.0245-2.2533-0.049-3.4141-0.0742-4.316 1.2929-4.6452 2.1565-6.8398 5.9453-1.128 2.176-2.2291 4.366-3.3086 6.5664-0.91399 1.7809-1.828 3.5617-2.7445 5.3413-0.94801 1.848-1.8852 3.7012-2.8214 5.5552-2.9784 5.8938-6.0481 11.473-9.0928 17.066-4.9143 9.1011-9.7278 18.25-14.488 27.433-3.275 6.2992-6.6464 12.538-10.074 18.755-5.5066 9.9976-10.721 20.135-15.923 30.294-4.846 9.4589-9.7924 18.845-14.933 28.148-4.1222 7.4918-8.0492 15.079-11.957 22.684-4.5256 8.8056-9.1124 17.569-13.875 26.25-0.48243 0.88172-0.96486 1.7634-1.4619 2.6719-1.8406 3.3599-3.6838 6.7181-5.5488 10.064-1.2989 2.3321-2.5827 4.672-3.8643 7.0137-0.38333 0.67644-0.76667 1.3529-1.1616 2.0498-2.3837 4.3918-2.5884 6.1416-2.5884 11.45 28.05 0 56.1 0 85 0 0.33-1.65 0.66-3.3 1-5 2.9351-4.6962 6.844-8.0125 12-10 6.7403-0.97612 13.32-0.88387 19.285 2.6602 4.8873 3.8185 9.2761 8.7689 10.051 15.074 0.0852 6.5762-0.10352 11.99-4.3359 17.266-6.3991 6-6.3991 6-11 6 0 6.93 0 13.86 0 21 1.65 0.33 3.3 0.66 5 1 5.3113 3.8241 8.6693 7.5546 10 14 0.72537 6.6734 0.49945 11.747-3.5039 17.281-4.0458 4.6479-8.4119 8.3579-14.668 9.0898-7.6293 0.1416-13.09-0.0477-18.828-5.3711-5-5.0246-5-5.0246-5-8-26.269-0.01-52.537 0.015-78.805 0.0803-12.196 0.0295-24.393 0.0478-36.589 0.0398-10.628-0.007-21.256 0.007-31.884 0.0463-5.6296 0.0201-11.259 0.0295-16.889 0.014-5.296-0.0143-10.591-0.00069-15.887 0.0345-1.9463 0.008-3.8926 0.006-5.8389-0.008-2.6533-0.0165-5.3038 0.004-7.9569 0.0331-0.77432-0.0136-1.5486-0.0272-2.3464-0.0412-2.4249-0.0126-2.4249-0.0126-5.8033 0.80066-2.4659 2.8178-2.4659 2.8178-4 6-4.7286 4.8077-9.3635 6.4362-16.062 6.6875-7.9414-0.36797-12.533-2.8582-17.812-8.625-4.1661-6.0041-5.0161-11.888-4.125-19.062 2.4204-5.9501 6.4875-10.636 12-14 1.6145-0.3115 3.2291-0.62266 4.8438-0.93359 4.772-1.3525 6.3655-3.1974 8.7734-7.4922 1.119-2.2796 2.2033-4.5766 3.2578-6.8867 0.59233-1.2288 1.1886-2.4556 1.7886-3.6807 1.2144-2.4827 2.4152-4.9712 3.6079-7.4644 2.4522-5.0255 5.1335-9.9083 7.8535-14.792 4.5884-8.3276 9.0152-16.73 13.389-25.172 3.2857-6.3249 6.6668-12.588 10.111-18.828 5.7374-10.411 11.147-20.981 16.558-31.563 4.9777-9.7306 10.046-19.392 15.336-28.957 4.3475-7.898 8.4843-15.899 12.606-23.917 0.34395-0.66904 0.6879-1.3381 1.0423-2.0274 1.3492-2.625 2.6982-5.25 4.0469-7.8752 2.7553-5.3596 5.5401-10.703 8.3484-16.035 0.58491-1.1144 0.58491-1.1144 1.1816-2.2512 1.7654-3.3514 3.5578-6.6822 5.416-9.9832 0.33379-0.59861 0.66757-1.1972 1.0115-1.814 0.87367-1.5594 1.7605-3.1114 2.6487-4.6626 1.2586-2.8422 1.2763-4.605 1.1797-7.6641-1.6964 0.20363-1.6964 0.20363-3.427 0.41138-6.2247 0.74734-12.483 1.5015-18.7 2.2515-1.098 0.12351-2.1961 0.24702-3.3274 0.37427-0.99411 0.10981-1.9882 0.21962-3.0125 0.33276-0.84812 0.0939-1.6962 0.18772-2.5701 0.28443-2.1526 0.19604-2.1526 0.19604-5.1526 0.19604-0.04125 0.66-0.0825 1.32-0.125 2-1.667 5.7153-5.3645 10.405-10.5 13.438-5.9174 2.7395-12.167 3.8991-18.527 1.8789-5.9597-2.7568-11.434-7.0303-13.848-13.316-0.61488-5.87-1.2553-12.618 1.5625-18 2.7892-3.4329 5.6775-6.6184 9.4375-9 0.99 0 1.98 0 3 0 0-12.54 0-25.08 0-38-1.65-0.66-3.3-1.32-5-2-5.0537-3.1586-7.9597-7.4751-10-13-1.2192-8.2266 0.47203-13.389 5.1875-20.125-8.7675 1.5164-13.116 3.2851-21.188 7.125z" fill="#78a8f1" transform="translate(874.06 297.19)"/>
    <path d="M0 0C0.495 0.99 0.495 0.99 1 2-0.16479 4.5242-0.16479 4.5242-1.9805 7.7305-2.3044 8.3088-2.6283 8.887-2.9621 9.4828-3.6634 10.733-4.3682 11.982-5.076 13.229c-1.8755 3.3049-3.7248 6.6245-5.5763 9.9429-0.3734 0.66785-0.74679 1.3357-1.1315 2.0238-3.2665 5.8571-6.3933 11.781-9.4662 17.742-3.7396 7.2421-7.5655 14.424-11.5 21.562-4.9443 8.9857-9.6853 18.067-14.375 27.188-0.34606 0.67294-0.69213 1.3459-1.0487 2.0392-1.3592 2.6437-2.7182 5.2875-4.0768 7.9315-7.0839 13.78-14.393 27.439-21.724 41.089-3.4701 6.4638-6.922 12.937-10.346 19.425-5.4073 9.9966-8.8227 19.069-13.426 28.82-0.33 0-0.66 0-1 0-0.0248-5.8716-0.0429-11.743-0.0549-17.615-0.005-1.9961-0.0118-3.9922-0.0205-5.9883-0.0122-2.8745-0.0178-5.749-0.0222-8.6235-0.005-0.88773-0.0103-1.7755-0.0156-2.6901-4e-4-4.4553 0.0566-8.7258 1.1133-13.083 1.707-1.3984 1.707-1.3984 3.8125-2.375 4.6652-2.6216 6.6764-5.5118 8.1875-10.625 0.55571-5.0014 0.17186-7.7241-1.875-12.25-0.99946-2.8632-1.2617-4.2787-0.41016-7.2148 1.2844-2.5948 2.6741-5.0975 4.1499-7.5879 1.2662-2.172 2.4634-4.374 3.6548-6.5879 6.0524-11.244 12.262-22.403 18.437-33.579 4.8408-8.7623 9.6499-17.541 14.418-26.343 0.54133-0.99886 1.0827-1.9977 1.6404-3.0269 2.6163-4.7678 2.6163-4.7678 4.99-9.6565-2.3906 0.6875-2.3906 0.6875-4.7812 1.375-1.4154 0.15469-1.4154 0.15469-2.8594 0.3125 4.8638-0.75023 8.0411-1.5625 11.75-5 2.7371-3.9732 4.0258-6.9444 3.9062-11.84 0.34084-3.0636 0.8418-3.9461 3.2292-5.9741 2.9576-1.8129 5.9595-3.4269 9.052-4.9985 1.0422-0.55881 2.0844-1.1176 3.1582-1.6934-2.2518-1.2041-3.9463-2.3241-6.543-3.2969z" fill="#040507" transform="translate(1080 333)"/>
    <path d="m0 0c1.195 3.585 0.878 5.9283 0.51172 9.6875-0.09489 0.98662-0.09489 0.98662-0.1917 1.9932-0.13574 1.3956-0.27464 2.791-0.41646 4.186-0.2124 2.0971-0.4133 4.1951-0.61255 6.2935-0.37208 3.953-0.81419 7.8959-1.2803 11.84-0.12496 1.1004-0.24992 2.2008-0.37866 3.3345-0.99959 7.0619-0.99959 7.0619-3.8987 9.8765-0.87842 0.50758-1.7563 0.89172-2.6608 1.2871-4.2064 1.9205-6.1674 3.3196-8.0625 7.625-0.47195 3.179-0.47195 3.179-0.375 6.5-0.0077 1.1034-0.01547 2.2069-0.02344 3.3438 0.18531 3.2066 0.18531 3.2066 1.9844 5.75 0.04297 2.2852 0.04297 2.2852-0.04297 4.2852-1.3849 3.9287-3.2878 7.4946-5.2695 11.152-0.4444 0.83201-0.88881 1.664-1.3467 2.5212-4.3298 8.0834-8.7348 16.126-13.138 24.17-3.0894 5.6808-6.4772 11.978-9.8625 18.25-8.7484 16.27-17.591 32.488-26.524 48.658-0.42773 0.77554-0.85545 1.5511-1.2961 2.3501-0.37399 0.67692-0.74798 1.3538-1.1333 2.0513-1.0909 1.9134-1.0909 1.9134-1.792 3.9724-1.8949 2.9737-4.3737 3.8996-7.5044 5.4568-0.61392 0.30746-1.2278 0.61491-1.8604 0.93169-1.295 0.64516-2.5929 1.2844-3.8936 1.9182-1.9962 0.9744-3.9807 1.9698-5.9648 2.9685-7.1027 3.5199-7.1027 3.5199-10.031 4.6934-0.66-0.33-1.32-0.66-2-1 0.54295-4.3892 1.5994-7.6038 3.7383-11.465 0.56671-1.0354 1.1334-2.0709 1.7173-3.1377 0.61278-1.1005 1.2256-2.2011 1.8569-3.335 0.96089-1.7529 1.9218-3.5058 2.8806-5.2599 0.65191-1.1924 1.3048-2.3843 1.9585-3.5757 3.0768-5.6152 6.0344-11.289 8.9734-16.977 3.9029-7.5348 7.9067-15.004 12-22.438 3.7792-6.8671 7.4113-13.781 10.875-20.812 3.3005-6.6991 6.7561-13.28 10.375-19.812 6.6965-12.11 12.961-24.439 19.244-36.767 4.5376-8.9 9.1236-17.771 13.789-26.605 2.5537-4.8366 5.0886-9.6821 7.5967-14.542 0.5949-1.1524 1.1898-2.3048 1.8027-3.4922 0.89575-1.7377 1.7915-3.4754 2.6858-5.2139-1.3125 2.625-1.3125 2.625-2.6484 5.2969-0.51764 1.005-1.0353 2.0099-1.5686 3.0454z" fill="#050609" transform="translate(965 412)"/>
    <path d="M0 0C2.5709 0.36727 4.095 1.0639 6.2656 2.5234 9.4327 4.2337 11.424 4.4024 15 4.375c1.0106 0.0077 2.0213 0.0155 3.0625 0.0234 3.0093-0.2001 3.0093-0.2001 5.4375-1.9844 2.5-1.4141 2.5-1.4141 5.2695-1.3477 4.2053 1.2153 7.9912 2.9529 11.918 4.8711 0.83741 0.40259 1.6748 0.80518 2.5376 1.22 6.3836 3.0962 12.654 6.3841 18.904 9.7407 5.1041 2.7157 10.266 5.2828 15.48 7.7776 0.66045 0.3162 1.3209 0.6324 2.0014 0.95818 3.3137 1.5835 6.6318 3.1571 9.9552 4.7203 1.2203 0.57972 2.4405 1.1596 3.6606 1.7395 1.0888 0.5124 2.1775 1.0248 3.2993 1.5527 1.1042 0.5308 2.2083 1.0616 3.3125 1.5924-55.77 0-111.54 0-169 0 3.2382-3.2382 6.4031-4.7339 10.5-6.5625 6.9641-3.1952 13.765-6.611 20.527-10.213 5.1789-2.7562 10.375-5.4748 15.59-8.1621 0.98994-0.51034 0.98994-0.51034 1.9999-1.031 2.6658-1.3737 5.3318-2.7468 7.9995-4.1167 1.8708-0.96087 3.7405-1.924 5.61-2.8874-2.2105 0.57683-4.4195 1.155-6.6289 1.7334z" fill="#040508" transform="translate(948 587)"/>
    <path d="m0 0c59.4 0 118.8 0 180 0-2.7318 2.7318-4.7246 4.0952-8.0703 5.8828-1.4676 0.79084-1.4676 0.79084-2.9648 1.5977-1.5295 0.81404-1.5295 0.81404-3.0898 1.6445-2.0242 1.0845-4.0477 2.1704-6.0703 3.2578-0.89735 0.4784-1.7947 0.95681-2.7192 1.4497-0.88882 0.47495-1.7776 0.9499-2.6664 1.4249-2.6552 0.21529-4.4354 0.30987-6.8008-0.98828-3.423-2.2484-8.453-1.7475-13.201-1.1641-3.4103 1.6752-5.3424 2.718-7.082 6.1094-2.5859 2.549-4.8046 2.4113-8.325 2.4465-0.89695-0.01845-1.7939-0.0369-2.718-0.05591-1.4315-0.01704-1.4315-0.01704-2.8918-0.03442-13.948-0.16626-27.904-1.5469-41-3.8711z" fill="#060709" transform="translate(893 322)"/>
    <path d="m0 0c24.42 0 48.84 0 74 0 1.32 2.31 2.64 4.62 4 7 2.0334 1.452 2.0334 1.452 4.1953 2.2773 2.612 1.4843 3.6093 2.119 4.5459 5.0122 0.26484 2.7983 0.25294 5.4652 0.13379 8.2729 0.01418 0.94553 0.02836 1.8911 0.04297 2.8652 0.21372 3.6788 0.056 5.9893-0.65601 8.572-2.8047 2.5273-2.8047 2.5273-6 4-0.87229 0.63479-0.87229 0.63479-1.7622 1.2824-2.9618 0.94975-4.5491 0.035-7.2603-1.296-0.32664-0.15464-0.65328-0.30929-0.97998-0.46387-0.30094-0.14236-0.60187-0.28472-0.91211-0.43164-0.64951-0.30737-1.299-0.61474-1.9485-0.92212-2.3045-1.155-4.5968-2.3323-6.8896-3.5117-1.5983-0.80659-3.1972-1.6118-4.7969-2.4156-4.2143-2.1224-8.4186-4.2639-12.621-6.4094-4.2716-2.1766-8.5521-4.3353-12.832-6.4954-6.9153-3.4929-13.825-6.9969-20.728-10.515-3.002-1.5297-5.8362-2.9697-8.7725-4.375z" fill="#040507" transform="translate(991 579)"/>
    <path d="M0 0C4.9606 0.23748 7.4387 2.9715 10.75 6.3125 26.795 21.728 48.941 36.207 71 41c0 0.66 0 1.32 0 2-1.1081 0.1107-2.2162 0.2214-3.3579 0.33545-4.1789 0.41826-8.3573 0.84043-12.536 1.2637-1.7958 0.18138-3.5917 0.36175-5.3877 0.54102-9.6016 0.95916-19.158 1.9634-28.688 3.4971-3.4088 0.40817-6.6013 0.59818-10.03 0.36279-1.4057-1.9498-2.7295-3.9595-4-6-1.3566-0.53241-2.7223-1.0422-4.0938-1.5352-2.1579-1.2942-2.1579-1.2942-3.9062-3.4648-1.0856-6.2585-0.7942-12.424-0.5625-18.75 0.03157-1.7512 0.0596-3.5026 0.08398-5.2539-0.08398 1.418-0.08398 1.418-0.16797 2.832-0.08398 1.414-0.16797 2.828-0.25195 4.2422z" fill="#050609" transform="translate(871 336)"/>
    <path d="m0 0c0.33 0 0.66 0 1 0 0.0605 5.2164 0.05241 10.429 0.01221 15.646-0.01139 3.1307 0.0099 6.2602 0.036 9.3908 0.01396 2.873-0.0082 5.7451-0.037 8.618-0.0074 1.4325-9.4e-4 2.865 0.01984 4.2974 0.15336 11.598 0.15336 11.598-2.8106 15.226-2.1619 1.5918-2.1619 1.5918-4.3164 2.7629-2.6553 1.7428-3.4312 3.9044-4.5215 7.0762-0.05317 1.3021-0.10635 2.6042-0.16113 3.9458-0.42858 3.5812-0.61772 3.8755-3.627 6.3076-1.217 0.61068-2.4507 1.1888-3.6963 1.7388-0.65261 0.31688-1.3052 0.63376-1.9776 0.96024-2.0836 1.0032-4.1842 1.9627-6.288 2.9226-1.3998 0.66652-2.7982 1.3358-4.1953 2.0078-2.7563 1.3095-8.0528 3.7774-13.521 5.9004 1.3222-3.4331 2.8055-6.6945 4.5039-9.957 0.48856-0.93908 0.97711-1.8782 1.4805-2.8457 0.78117-1.4898 0.78117-1.4898 1.5781-3.0098 0.54012-1.0332 1.0802-2.0664 1.6367-3.1309 3.3484-6.3754 6.7951-12.679 10.372-18.928 2.6105-4.8256 5.6139-10.63 8.6156-16.449-1.5782 3.1746-3.3974 6.2251-5.2969 9.2305z" fill="#06070a" transform="translate(956 505)"/>
    <path d="M0 0C5.8571 1.2388 11.658 2.5574 17.379 4.3242 42.292 11.988 68.108 15.567 94 18c2.1133 0.20639 4.2266 0.41341 6.3398 0.62109 4.8853 0.47596 9.772 0.93358 14.66 1.3789-3.3062 3.559-7.1985 5.5311-11.438 7.8125-0.76377 0.43248-1.5275 0.86496-2.3145 1.3105-0.74057 0.39897-1.4811 0.79793-2.2441 1.209-1.0082 0.55265-1.0082 0.55265-2.0369 1.1165-1.168 0.64062-2.3359 1.2812-3.5039 1.9219-3.3551 1.0838-5.4671 2.2789-8.0511 2.2058-3.5996 1.6389-7.1876 3.3751-9 7-6.2252-1.236-12.117-2.91-18.062-5.125-0.81928-0.30494-1.6386-0.60989-2.4827-0.92407-16.667-6.3546-32.051-15.061-45.455-26.875z" fill="#06080b" transform="translate(893 336)"/>
    <path d="M0 0C-1.3202 3.4506-2.8221 6.6824-4.582 9.9297-5.0952 10.878-5.6083 11.826-6.137 12.803-6.6899 13.817-7.2428 14.831-7.8125 15.875-0.86516 1.5921-0.86516 1.5921-1.7478 3.2163-4.4534 8.167-9.011 16.272-13.608 24.359-3.9042 6.8778-7.7342 13.793-11.519 20.738-0.50539 0.927-1.0108 1.854-1.5315 2.8091-1.7489 3.2134-3.7127 6.8541-5.5498 10.592-0.33 0-0.66 0-1 0 0.4966-9.4745 1.1952-18.896 2.2822-28.322 0.48132-4.1852 0.75404-8.2754 0.84277-12.49 0.26303-2.8203 0.5067-3.8235 2.5391-5.832 1.3962-0.99096 2.8179-1.947 4.2617-2.8672-1.3641 2.3355-2.8179 4.6162-4.373 6.8359z" fill="#07090c" transform="translate(1018 366)"/>
    <path d="M0 0C1.0941 2.7312 1.0686 3.8199 0.00293 6.6152-0.77969 8.0896-0.77969 8.0896-1.5781 9.5938-2.447 11.25-2.447 11.25-3.3335 12.94-3.972 14.127-4.6108 15.314-5.25 16.5-5.891 17.71-6.5312 18.921-7.1704 20.132-12.655 30.489-18.284 40.769-24 51c-0.66 0-1.32 0-2 0 1.8276-4.9612 4.271-9.5872 6.6836-14.281 0.68426-1.3367 0.68426-1.3367 1.3823-2.7003 0.96303-1.8799 1.9272-3.7592 2.8923-5.6381 1.4733-2.8688 2.9423-5.7397 4.4109-8.6108 0.9379-1.8296 1.876-3.659 2.8145-5.4883 0.43759-0.85533 0.87518-1.7107 1.326-2.5919-1.3113 2.4612-2.636 4.9151-3.9688 7.3652z" fill="#839bde" transform="translate(956 395)"/>
    <path d="M0 0C0.5775 0.22688 1.155 0.45375 1.75 0.6875 0.95336 1.1245 0.95336 1.1245 0.14062 1.5703-5.2077 4.6739-8.6331 7.6454-11 13.562-0.93188 7.921-0.0061 13.213 4.6875 19.875 1.8963 2.0687 3.746 3.6781 6.0625 5.25-5.3509-0.63548-7.1964-2.856-10.484-6.8945-2.2536-3.9118-2.642-9.9936-1.8285-16.543-0.16187 2.429-0.66185 4.7156-1.4375 6.9375z" fill="#849be3" transform="translate(835.25 612.31)"/>
    <path d="m0 0c0.66 0 1.32 0 2 0-1.5989 5.1964-3.7414 10.066-6 15-0.66 0-1.32 0-2 0-0.20625 0.76313-0.4125 1.5263-0.625 2.3125-0.93395 3.1865-3.6535 7.8778-6.375 13.688-1-3-1-3-0.16724-5.249 0.44062-0.86142 0.88124-1.7228 1.3352-2.6104 0.48147-0.95133 0.96293-1.9027 1.459-2.8828 0.51498-0.99258 1.03-1.9852 1.5605-3.0078 0.49564-0.97711 0.99129-1.9542 1.502-2.9609-0.29991 0.60762-0.59982 1.2152-0.89973 1.8229z" fill="#89a2e9" transform="translate(1048 394)"/>
    <path d="M0 0C1 3 1 3 0.375 5.25-0.0715 8.5243 0.9131 10.191 2.2812 13.117 3.8852 17.319 3.713 21.194 2.0977 25.285 1.1301 27.238 0.11495 29.128-1 31c-0.99 0-1.98 0-3 0 0.99-1.485 0.99-1.485 2-3 1.2333-2.9501 1.7542-6.5261 1-11-0.72266-2.0502-1.5508-4.0346-2.3906-6.0391-0.98922-3.1832-0.44737-5.8023 0.39062-8.9609z" fill="#8aa3e6" transform="translate(981 456)"/>
    <path d="M0 0C0.53625 0.2475 1.0725 0.495 1.625 0.75 1.0062 0.8325 0.3875 0.915-0.25 1-3.0501 1.9883-3.1161 3.1536-4.375 5.75-5.0195 5.9653-5.6641 6.1805-6.3281 6.4023-8.7626 7.6917-8.7626 7.6917-9.4219 11.227-9.6739 12.606-9.9077 13.989-10.125 15.375-0.12504 0.70641-0.25008 1.4128-0.37891 2.1406-0.30605 1.7421-0.59065 3.488-0.87109 5.2344-0.33 0-0.66 0-1 0-1.2476-11.637-1.2476-11.637 1-16.562 2.198-2.9624 4.3283-5.2809 6.875-7.8125z" fill="#8598e0" transform="translate(959.38 458.25)"/>
    <path d="M0 0C0.99561 2.6092 1.103 3.7263 0.10376 6.3818-0.36232 7.2407-0.82839 8.0995-1.3086 8.9844-1.8081 9.9189-2.3076 10.854-2.8223 11.816-3.3553 12.784-3.8883 13.753-4.4375 14.75-4.9667 15.734-5.4958 16.717-6.041 17.73-7.35 20.16-8.6699 22.582-10 25c-0.66 0-1.32 0-2 0 1.6268-5.7032 4.332-10.68 7.125-15.875-0.30176 0.61621-0.60352 1.2324-0.90527 1.8516z" fill="#8095d6" transform="translate(956 395)"/>
    <path d="M0 0C0.66 0 1.32 0 2 0 0.48968 5.2612-1.9037 9.6723-4.625 14.375-5.0452 15.111-5.4655 15.847-5.8984 16.605-6.9275 18.406-7.9631 20.204-9 22-0.89753 1.5385-1.1451 2.3801-0.19556 4.8936-0.16365 0.33075-0.3273 0.6615-0.49097 0.99219z" fill="#8d9fe4" transform="translate(947 495)"/>
    <path d="M0 0C0.33 1.32 0.66 2.64 1 4 2.32 4 3.64 4 5 4 4.4237 8.7548 2.4493 11.97 0 16-0.33 16-0.66 16-1 16-0.67 10.72-0.34 5.44 0 0Z" fill="#111722" transform="translate(976 428)"/>
    <path d="m0 0c-0.57345 2.8672-0.86145 3.8615-3 6-0.99 0-1.98 0-3 0-0.66 3.63-1.32 7.26-2 11-0.33 0-0.66 0-1 0-2.3843-4.8044-2.4797-8.0902-0.1875-12.438-0.3862 0.8523-0.77764 1.7019-1.1719 2.5508z" fill="#809ee8" transform="translate(954 558)"/>
    <path d="M0 0C0.66 0 1.32 0 2 0 1.7112 0.84563 1.4225 1.6913 1.125 2.5625-0.05187 6.0047-0.05187 6.0047-0.875 9.625-2.0466 13.14-3.1915 14.66-6 17-0.34885-4.8984-0.46793-7.959-3-12.188-0.4425 0.55687-0.885 1.1137-1.3275 1.6738z" fill="#7c9fe7" transform="translate(934 519)"/>
    <path d="M0 0C0.95545 3.0353 1.1111 3.7368-0.1875 6.8125-0.78563 7.8644-1.3838 8.9162-2 10-2.3493 10.617-2.6987 11.235-3.0586 11.871-4.0314 13.585-5.0151 15.293-6 17c-0.33 0.66-0.66 1.32-1 2-0.66 0-1.32 0-2 0 1.3922-4.6268 3.2952-8.6469 5.625-12.875-0.63086 1.3164-1.2617 2.6328-1.8918 3.9492z" fill="#0f151f" transform="translate(1085 359)"/>
    <path d="M0 0C2.5822 2.5822 2.2979 3.727 2.3125 7.3125 2.2495 11.68 1.8741 14.527-1 18-1.2599-3.7796-0.64025-6.8442-0.0625-10.688-0.03043 0.44219-0.06086 0.88438-0.09131 1.3262z" fill="#819ae2" transform="translate(1105 625)"/>
    <path d="M0 0C4.29 0.99 8.58 1.98 13 3 11.68 4.32 10.36 5.64 9 7 5.1832 5.445 2.808 2.964 0 0Z" fill="#0d101d" transform="translate(893 336)"/>
    <path d="M0 0C0.66 0 1.32 0 2 0 2.4125 1.0519 2.825 2.1038 3.25 3.1875 5.4359 8.2675 8.4101 11.885 13 15 7.6618 14.365 5.7701 12.143 2.4492 8.1445 0.64048 5.468 0.08045 3.2181 0 0Z" fill="#89a0e9" transform="translate(822 636)"/>
    <path d="m0 0c0.66 0.33 1.32 0.66 2 1-2.475 4.455-2.475 4.455-5 9-0.33 0-0.66 0-1 0-1.125-5.75-1.125-5.75 0-10z" fill="#090c11" transform="translate(974 530)"/>
    <path d="M0 0C0.97226 2.5907 1.1161 3.697 0.10938 6.3242-0.33922 7.1041-0.78781 7.884-1.25 8.6875-1.6883 9.4751-2.1266 10.263-2.5781 11.074-4 13-4 13-7 14-1.2357-4.9721 1.3939-9.4344 4-14z" fill="#8394d7" transform="translate(1074 346)"/>
    <path d="M0 0C0.66 0 1.32 0 2 0 0.58708 4.8275-1.4297 8.7162-4 13-1.0169 1.345-0.13022 2.6406 0.125 4z" fill="#93a3e5" transform="translate(943 420)"/>
    <path d="M0 0C1.1423 3.4269 0.90861 5.611 0.5625 9.1875 0.46066 10.274 0.35883 11.361 0.25391 12.48 0.12822 13.728 0.12822 13.728 0 15-0.33 15-0.66 15-1 15-1.33 12.69-1.66 10.38-2 8-2.99 8.495-2.99 8.495-4 9-1.9412-3.4031-0.99098-6.0135 1-9z" fill="#2c3a58" transform="translate(965 412)"/>
    <path d="M0 0C0.66 0 1.32 0 2 0 0.78066 4.0332-0.55955 7.5427-3 11-0.66 11-1.32 11-2 11-0.78066-4.0332 0.55955-7.5427 3-11z" fill="#8095db" transform="translate(852 592)"/>
    <path d="M0 0C0.53625 0.2475 1.0725 0.495 1.625 0.75 1.0062 0.8325 0.3875 0.915-0.25 1c-2.3085 0.53811-2.3085 0.53811-3.125 2.75-1 2-1 2-3.125 2.75-0.92813 0.12375-0.92813 0.12375-1.875 0.25 0-0.99 0-1.98 0-3-2.625-3.3536-2.625-3.3536 0.5-5.75z" fill="#8da8ef" transform="translate(959.38 458.25)"/>
    <path d="M0 0C3.6667 3.6667 7.3333 7.3333 11 11 8.153 10.916 6.4488 10.409 4.332 8.4805 0 3.5928 0 3.5928 0 0Z" fill="#8d9fea" transform="translate(1066 640)"/>
    <path d="M0 0C0.66 0 1.32 0 2 0 1.01 2.97 0.02 5.94-1 9-1.66 9-2.32 9-3 9-2.4427 5.6563-1.6483 2.9669 0 0Z" fill="#819ee9" transform="translate(1054 383)"/>
    <path d="M0 0C0 0.66 0 1.32 0 2-0.92813 2.4331-1.8563 2.8663-2.8125 3.3125-5.4718 4.7204-7.0811 5.7612-9 8-0.6641-3.1351-0.97335-4.0262 1.375-6.25-0.45833 0.64583-0.91667 1.2917-1.375 1.9375z" fill="#8ba4ee" transform="translate(854 376)"/>
    <path d="M0 0C0.75 1.5625 0.75 1.5625 1 4-0.13084 6.5029-1.5214 8.6701-3 11-0.75 1.4375-0.75 1.4375-1 4z" fill="#869bdd" transform="translate(941 506)"/>
    <path d="M0 0C2.97 0 5.94 0 9 0 8.67 0.99 8.34 1.98 8 3 2.25 2.25 2.25 2.25 0 0Z" fill="#0c0c14" transform="translate(897 323)"/>
    <path d="M0 0C0.66 0 1.32 0 2 0 0.90931 3.7755 0.09169 6.4704-3 9-2.4427 5.6563-1.6483 2.9669 0 0Z" fill="#889ae4" transform="translate(1062 368)"/>
    <path d="M0 0C0.33 0.99 0.66 1.98 1 3-0.32 4.32-1.64 5.64-3 7-0.625 1.125-0.625 1.125-1 3z" fill="#729de7" transform="translate(923 462)"/>
  </g>
</svg>
